<svg width="1200" height="500" viewBox="0 0 1200 500" fill="none" xmlns="http://www.w3.org/2000/svg">
  <rect width="1200" height="500" rx="20" fill="#F9FAFB"/>
  <rect x="40" y="40" width="1120" height="420" rx="16" fill="#FFFFFF" stroke="#E5E7EB"/>
  <text x="80" y="110" fill="#111827" font-family="Inter, Arial, sans-serif" font-size="34" font-weight="700">Suspicious Follower Detection System</text>
  <text x="80" y="148" fill="#6B7280" font-family="Inter, Arial, sans-serif" font-size="18">Workflow Overview (Instagram Account &amp; Follower Authenticity Analysis)</text>

  <rect x="80" y="190" width="180" height="76" rx="12" fill="#EFF6FF" stroke="#DBEAFE"/>
  <text x="100" y="222" fill="#1D4ED8" font-family="Inter, Arial, sans-serif" font-size="16" font-weight="600">1. Upload CSV</text>
  <text x="100" y="245" fill="#6B7280" font-family="Inter, Arial, sans-serif" font-size="13">Accounts + follower stats</text>

  <path d="M272 228H336" stroke="#9CA3AF" stroke-width="2"/>
  <path d="M336 228L328 222V234L336 228Z" fill="#9CA3AF"/>

  <rect x="348" y="190" width="200" height="76" rx="12" fill="#EFF6FF" stroke="#DBEAFE"/>
  <text x="368" y="222" fill="#1D4ED8" font-family="Inter, Arial, sans-serif" font-size="16" font-weight="600">2. Feature Signals</text>
  <text x="368" y="245" fill="#6B7280" font-family="Inter, Arial, sans-serif" font-size="13">Engagement, ratio, timing</text>

  <path d="M560 228H624" stroke="#9CA3AF" stroke-width="2"/>
  <path d="M624 228L616 222V234L624 228Z" fill="#9CA3AF"/>

  <rect x="636" y="190" width="220" height="76" rx="12" fill="#EFF6FF" stroke="#DBEAFE"/>
  <text x="656" y="222" fill="#1D4ED8" font-family="Inter, Arial, sans-serif" font-size="16" font-weight="600">3. Heuristic Scoring</text>
  <text x="656" y="245" fill="#6B7280" font-family="Inter, Arial, sans-serif" font-size="13">Weighted explainable model</text>

  <path d="M868 228H932" stroke="#9CA3AF" stroke-width="2"/>
  <path d="M932 228L924 222V234L932 228Z" fill="#9CA3AF"/>

  <rect x="944" y="190" width="180" height="76" rx="12" fill="#EFF6FF" stroke="#DBEAFE"/>
  <text x="964" y="222" fill="#1D4ED8" font-family="Inter, Arial, sans-serif" font-size="16" font-weight="600">4. Verdict</text>
  <text x="964" y="245" fill="#6B7280" font-family="Inter, Arial, sans-serif" font-size="13">Fake / Genuine output</text>

  <rect x="80" y="304" width="1044" height="116" rx="12" fill="#F9FAFB" stroke="#E5E7EB"/>
  <text x="104" y="338" fill="#111827" font-family="Inter, Arial, sans-serif" font-size="18" font-weight="600">Follower-level Explanation</text>
  <text x="104" y="366" fill="#6B7280" font-family="Inter, Arial, sans-serif" font-size="14">For each flagged follower, the dashboard explains why the follower is suspicious</text>
  <text x="104" y="388" fill="#6B7280" font-family="Inter, Arial, sans-serif" font-size="14">(e.g., abnormal follower ratio, low engagement consistency, autogenerated username patterns).</text>
</svg>
